<svg xmlns="http://www.w3.org/2000/svg" viewBox="0 0 1200 675" role="img" aria-label="Blockchain marketplace and analytics">
  <rect width="1200" height="675" fill="#101010"/>
  <rect x="90" y="86" width="1020" height="500" rx="22" fill="#191919"/>
  <g stroke="#F8D66D" stroke-width="4" fill="none">
    <path d="M270 210l98 56v112l-98 56-98-56V266z"/>
    <path d="M600 156l130 74v148l-130 74-130-74V230z"/>
    <path d="M920 254l86 50v100l-86 50-86-50V304z"/>
    <path d="M368 320h102M730 304h104"/>
  </g>
  <rect x="170" y="500" width="860" height="36" rx="18" fill="#282828"/>
  <rect x="170" y="500" width="620" height="36" rx="18" fill="#F8D66D"/>
  <rect x="204" y="132" width="190" height="24" rx="12" fill="#F8D66D"/>
  <rect x="790" y="132" width="236" height="24" rx="12" fill="#F8D66D" opacity=".7"/>
  <text x="126" y="630" fill="#FFF7D7" font-family="Arial, sans-serif" font-size="42" font-weight="700">DeFi / GameFi / Blockchain Systems</text>
</svg>
