<svg xmlns="http://www.w3.org/2000/svg" viewBox="0 0 1200 675" role="img" aria-label="Home services booking platform">
  <defs>
    <linearGradient id="bg" x1="0" x2="1" y1="0" y2="1">
      <stop offset="0" stop-color="#FFF7ED"/>
      <stop offset="1" stop-color="#ECFDF5"/>
    </linearGradient>
    <linearGradient id="phone" x1="0" x2="1" y1="0" y2="1">
      <stop offset="0" stop-color="#0F172A"/>
      <stop offset="1" stop-color="#164E63"/>
    </linearGradient>
  </defs>
  <rect width="1200" height="675" fill="url(#bg)"/>
  <circle cx="1000" cy="118" r="150" fill="#FDBA74" opacity=".28"/>
  <circle cx="162" cy="548" r="180" fill="#14B8A6" opacity=".18"/>
  <rect x="164" y="78" width="328" height="526" rx="42" fill="url(#phone)"/>
  <rect x="194" y="132" width="268" height="410" rx="28" fill="#F8FAFC"/>
  <rect x="236" y="170" width="184" height="18" rx="9" fill="#0F766E"/>
  <rect x="230" y="224" width="84" height="84" rx="24" fill="#FFEDD5"/>
  <rect x="336" y="224" width="84" height="84" rx="24" fill="#CCFBF1"/>
  <rect x="230" y="334" width="190" height="24" rx="12" fill="#CBD5E1"/>
  <rect x="230" y="380" width="132" height="14" rx="7" fill="#94A3B8"/>
  <rect x="230" y="424" width="190" height="58" rx="18" fill="#0F766E"/>
  <text x="268" y="462" fill="#FFFFFF" font-family="Arial, sans-serif" font-size="22" font-weight="700">Book Now</text>
  <rect x="590" y="116" width="452" height="112" rx="26" fill="#FFFFFF" stroke="#0F766E" stroke-width="3"/>
  <rect x="590" y="280" width="452" height="112" rx="26" fill="#FFFFFF" stroke="#F97316" stroke-width="3"/>
  <rect x="590" y="444" width="452" height="112" rx="26" fill="#FFFFFF" stroke="#0EA5E9" stroke-width="3"/>
  <g fill="#0F172A" font-family="Arial, sans-serif">
    <text x="642" y="166" font-size="30" font-weight="700">Service Catalog</text>
    <text x="642" y="330" font-size="30" font-weight="700">Booking Workflow</text>
    <text x="642" y="494" font-size="30" font-weight="700">Realtime Status</text>
  </g>
  <g fill="#64748B">
    <rect x="642" y="184" width="252" height="12" rx="6"/>
    <rect x="642" y="348" width="290" height="12" rx="6"/>
    <rect x="642" y="512" width="236" height="12" rx="6"/>
  </g>
  <text x="126" y="640" fill="#0F172A" font-family="Arial, sans-serif" font-size="42" font-weight="700">Home Services Booking App</text>
</svg>
