<svg xmlns="http://www.w3.org/2000/svg" viewBox="0 0 1200 675" role="img" aria-label="MMusic platform dashboard">
  <rect width="1200" height="675" fill="#061817"/>
  <rect x="90" y="82" width="1020" height="510" rx="22" fill="#071F1D" stroke="#84E6B1" stroke-width="3"/>
  <rect x="126" y="122" width="228" height="420" rx="14" fill="#0D2B28"/>
  <rect x="390" y="122" width="684" height="126" rx="14" fill="#0D2B28"/>
  <rect x="390" y="278" width="318" height="264" rx="14" fill="#0D2B28"/>
  <rect x="742" y="278" width="332" height="264" rx="14" fill="#0D2B28"/>
  <g fill="#84E6B1">
    <rect x="158" y="160" width="156" height="14" rx="7"/>
    <rect x="158" y="210" width="118" height="10" rx="5" opacity=".65"/>
    <rect x="158" y="250" width="142" height="10" rx="5" opacity=".65"/>
    <rect x="158" y="290" width="94" height="10" rx="5" opacity=".65"/>
    <rect x="158" y="330" width="130" height="10" rx="5" opacity=".65"/>
  </g>
  <polyline points="430,220 515,176 620,200 710,158 825,188 1018,144" fill="none" stroke="#B7F7D0" stroke-width="9" stroke-linecap="round" stroke-linejoin="round"/>
  <g fill="#B7F7D0">
    <rect x="430" y="472" width="32" height="42" rx="8"/>
    <rect x="486" y="422" width="32" height="92" rx="8"/>
    <rect x="542" y="382" width="32" height="132" rx="8"/>
    <rect x="598" y="330" width="32" height="184" rx="8"/>
    <rect x="654" y="444" width="32" height="70" rx="8"/>
  </g>
  <text x="124" y="620" fill="#E8FFF4" font-family="Arial, sans-serif" font-size="42" font-weight="700">MMusic Rights Platform</text>
</svg>
